<?xml version="1.0" encoding="UTF-8" standalone="no"?>
<!-- Created with Inkscape (http://www.inkscape.org/) -->

<svg
   width="157.45345mm"
   height="19.929756mm"
   viewBox="0 0 157.45345 19.929756"
   version="1.1"
   id="svg5"
   xmlns="http://www.w3.org/2000/svg"
   xmlns:svg="http://www.w3.org/2000/svg">
  <defs
     id="defs2" />
  <g
     id="layer1"
     transform="translate(-34.710481,-91.015844)">
    <g
       aria-label="MailCarrier"
       id="text240"
       style="font-size:25.4px;font-family:Alata;-inkscape-font-specification:Alata;fill:#ffffff;fill-opacity:1;stroke-width:0.264583">
      <path
         d="m 69.213858,93.308668 -2.251021,17.636932 -3.779342,-0.48236 1.421359,-11.136465 -6.090705,6.392325 -4.315084,-7.720428 -1.421359,11.136458 -3.779342,-0.48236 2.251021,-17.636928 3.779342,0.482362 4.302221,7.821213 6.103568,-6.493111 z"
         style="font-family:Retroica;-inkscape-font-specification:Retroica;fill:#ffffff;fill-opacity:1"
         id="path292" />
      <path
         d="m 84.925236,97.471287 v 12.928603 h -3.81 v -1.016 q -0.8128,0.6858 -1.778,1.0922 -0.9652,0.4318 -2.032,0.4318 -1.4478,0 -2.7432,-0.5334 -1.27,-0.5588 -2.2098,-1.4986 -0.9398,-0.9652 -1.4986,-2.2352 -0.5334,-1.27 -0.5334,-2.6924 0,-1.4478 0.5588,-2.7178 0.5588,-1.295403 1.4986,-2.235203 0.9652,-0.9398 2.2352,-1.4732 1.27,-0.5588 2.6924,-0.5588 1.0668,0 2.032,0.4318 0.9652,0.4064 1.778,1.0668 v -0.9906 z m -7.2136,10.007603 q 0.7112,0 1.3462,-0.2794 0.6604,-0.2794 1.143,-0.7366 0.4826,-0.4826 0.762,-1.1176 0.2794,-0.6604 0.2794,-1.397 0,-0.7366 -0.2794,-1.3716 -0.2794,-0.6604 -0.762,-1.1176 -0.4826,-0.4826 -1.143,-0.762 -0.635,-0.2794 -1.3462,-0.2794 -0.7366,0 -1.397,0.2794 -0.635,0.2794 -1.1176,0.762 -0.4572,0.4572 -0.7366,1.1176 -0.2794,0.635 -0.2794,1.3716 0,0.7366 0.2794,1.397 0.2794,0.635 0.7366,1.1176 0.4826,0.4572 1.1176,0.7366 0.6604,0.2794 1.397,0.2794 z"
         style="font-family:Retroica;-inkscape-font-specification:Retroica;fill:#ffffff;fill-opacity:1"
         id="path294" />
      <path
         d="m 87.744643,97.471287 h 3.81 v 12.928603 h -3.81 z m 1.905,-5.8674 q 0.9398,0 1.6002,0.6604 0.6604,0.6604 0.6604,1.6002 0,0.9398 -0.6604,1.6002 -0.6604,0.6604 -1.6002,0.6604 -0.9398,0 -1.6002,-0.6604 -0.6604,-0.6604 -0.6604,-1.6002 0,-0.9398 0.6604,-1.6002 0.6604,-0.6604 1.6002,-0.6604 z"
         style="font-family:Retroica;-inkscape-font-specification:Retroica;fill:#ffffff;fill-opacity:1"
         id="path296" />
      <path
         d="m 98.184038,92.619887 v 17.780003 h -3.81 V 92.619887 Z"
         style="font-family:Retroica;-inkscape-font-specification:Retroica;fill:#ffffff;fill-opacity:1"
         id="path298" />
      <path
         d="m 117.46262,106.84389 q -1.3208,1.8288 -3.2004,2.9464 -1.8542,1.1176 -4.1402,1.1176 -1.9304,0 -3.6322,-0.7366 -1.7018,-0.7366 -2.9972,-2.0066 -1.27,-1.27 -2.032,-2.9718 -0.7366,-1.7272 -0.7366,-3.683 0,-1.930403 0.7366,-3.632203 0.7366,-1.7018 2.0066,-2.9718 1.27,-1.2954 2.9718,-2.032 1.7272,-0.762 3.683,-0.762 2.2606,0 4.0386,1.016 1.778,1.016 3.1242,2.8448 l -3.175,2.159 q -0.3048,-0.4826 -0.6858,-0.9144 -0.381,-0.4572 -0.8636,-0.7874 -0.4826,-0.3556 -1.0922,-0.5588 -0.6096,-0.2032 -1.3462,-0.2032 -1.143,0 -2.159,0.4826 -1.016,0.4826 -1.778,1.2954 -0.762,0.7874 -1.1938,1.8542 -0.4318,1.066803 -0.4318,2.209803 0,1.143 0.4318,2.2098 0.4318,1.0668 1.1938,1.8796 0.762,0.7874 1.778,1.27 1.016,0.4826 2.159,0.4826 1.3208,0 2.3114,-0.6858 1.016,-0.7112 1.6764,-1.8034 z"
         style="font-family:Retroica;-inkscape-font-specification:Retroica;fill:#ffffff;fill-opacity:1"
         id="path300" />
      <path
         d="m 133.33759,97.471287 v 12.928603 h -3.81 v -1.016 q -0.8128,0.6858 -1.778,1.0922 -0.9652,0.4318 -2.032,0.4318 -1.4478,0 -2.7432,-0.5334 -1.27,-0.5588 -2.2098,-1.4986 -0.9398,-0.9652 -1.4986,-2.2352 -0.5334,-1.27 -0.5334,-2.6924 0,-1.4478 0.5588,-2.7178 0.5588,-1.295403 1.4986,-2.235203 0.9652,-0.9398 2.2352,-1.4732 1.27,-0.5588 2.6924,-0.5588 1.0668,0 2.032,0.4318 0.9652,0.4064 1.778,1.0668 v -0.9906 z m -7.2136,10.007603 q 0.7112,0 1.3462,-0.2794 0.6604,-0.2794 1.143,-0.7366 0.4826,-0.4826 0.762,-1.1176 0.2794,-0.6604 0.2794,-1.397 0,-0.7366 -0.2794,-1.3716 -0.2794,-0.6604 -0.762,-1.1176 -0.4826,-0.4826 -1.143,-0.762 -0.635,-0.2794 -1.3462,-0.2794 -0.7366,0 -1.397,0.2794 -0.635,0.2794 -1.1176,0.762 -0.4572,0.4572 -0.7366,1.1176 -0.2794,0.635 -0.2794,1.3716 0,0.7366 0.2794,1.397 0.2794,0.635 0.7366,1.1176 0.4826,0.4572 1.1176,0.7366 0.6604,0.2794 1.397,0.2794 z"
         style="font-family:Retroica;-inkscape-font-specification:Retroica;fill:#ffffff;fill-opacity:1"
         id="path302" />
      <path
         d="m 143.777,96.963287 q 0.6096,0 1.1938,0.1016 0.6096,0.0762 1.143,0.2794 l -0.7874,3.454403 q -0.0508,-0.1524 -0.508,-0.254 -0.4572,-0.127 -0.9144,-0.127 -0.9144,0 -1.6256,0.2032 -0.7112,0.2032 -1.2192,0.508 -0.4826,0.2794 -0.762,0.635 -0.254,0.3302 -0.254,0.635 v 8.001 h -3.81 V 97.471287 h 3.81 v 2.0066 q 0.1016,-0.381 0.508,-0.8128 0.4318,-0.4572 0.9652,-0.8128 0.5588,-0.381 1.143,-0.635 0.6096,-0.254 1.1176,-0.254 z"
         style="font-family:Retroica;-inkscape-font-specification:Retroica;fill:#ffffff;fill-opacity:1"
         id="path304" />
      <path
         d="m 155.46097,96.963287 q 0.6096,0 1.1938,0.1016 0.6096,0.0762 1.143,0.2794 l -0.7874,3.454403 q -0.0508,-0.1524 -0.508,-0.254 -0.4572,-0.127 -0.9144,-0.127 -0.9144,0 -1.6256,0.2032 -0.7112,0.2032 -1.2192,0.508 -0.4826,0.2794 -0.762,0.635 -0.254,0.3302 -0.254,0.635 v 8.001 h -3.81 V 97.471287 h 3.81 v 2.0066 q 0.1016,-0.381 0.508,-0.8128 0.4318,-0.4572 0.9652,-0.8128 0.5588,-0.381 1.143,-0.635 0.6096,-0.254 1.1176,-0.254 z"
         style="font-family:Retroica;-inkscape-font-specification:Retroica;fill:#ffffff;fill-opacity:1"
         id="path306" />
      <path
         d="m 159.67737,97.471287 h 3.81 v 12.928603 h -3.81 z m 1.905,-5.8674 q 0.9398,0 1.6002,0.6604 0.6604,0.6604 0.6604,1.6002 0,0.9398 -0.6604,1.6002 -0.6604,0.6604 -1.6002,0.6604 -0.9398,0 -1.6002,-0.6604 -0.6604,-0.6604 -0.6604,-1.6002 0,-0.9398 0.6604,-1.6002 0.6604,-0.6604 1.6002,-0.6604 z"
         style="font-family:Retroica;-inkscape-font-specification:Retroica;fill:#ffffff;fill-opacity:1"
         id="path308" />
      <path
         d="m 172.93614,96.963287 q 1.524,0 2.8194,0.5588 1.3208,0.5588 2.2606,1.524 0.9652,0.9398 1.4986,2.209803 0.5588,1.27 0.5588,2.6924 0,0.2794 -0.0254,0.5842 -0.0254,0.3048 -0.0762,0.5842 h -10.287 q 0.3302,0.9652 1.143,1.6764 0.8382,0.6858 2.1082,0.6858 0.9144,0 1.778,-0.3556 0.889,-0.3556 1.3462,-0.9398 l 3.0734,1.8796 q -0.508,0.6604 -1.1938,1.1938 -0.6858,0.508 -1.4986,0.889 -0.8128,0.3556 -1.7018,0.5588 -0.889,0.2032 -1.8034,0.2032 -1.524,0 -2.8702,-0.5334 -1.3208,-0.5588 -2.3114,-1.4986 -0.9652,-0.9652 -1.5494,-2.2352 -0.5588,-1.27 -0.5588,-2.6924 0,-1.4478 0.5842,-2.7178 0.5842,-1.295403 1.5748,-2.235203 0.9906,-0.9398 2.3114,-1.4732 1.3208,-0.5588 2.8194,-0.5588 z m 0,3.454403 q -1.143,0 -1.9558,0.6096 -0.7874,0.6096 -1.1938,1.4732 h 6.2992 q -0.381,-0.8636 -1.1938,-1.4732 -0.8128,-0.6096 -1.9558,-0.6096 z"
         style="font-family:Retroica;-inkscape-font-specification:Retroica;fill:#ffffff;fill-opacity:1"
         id="path310" />
      <path
         d="m 189.82714,96.963287 q 0.6096,0 1.1938,0.1016 0.6096,0.0762 1.143,0.2794 l -0.7874,3.454403 q -0.0508,-0.1524 -0.508,-0.254 -0.4572,-0.127 -0.9144,-0.127 -0.9144,0 -1.6256,0.2032 -0.7112,0.2032 -1.2192,0.508 -0.4826,0.2794 -0.762,0.635 -0.254,0.3302 -0.254,0.635 v 8.001 h -3.81 V 97.471287 h 3.81 v 2.0066 q 0.1016,-0.381 0.508,-0.8128 0.4318,-0.4572 0.9652,-0.8128 0.5588,-0.381 1.143,-0.635 0.6096,-0.254 1.1176,-0.254 z"
         style="font-family:Retroica;-inkscape-font-specification:Retroica;fill:#ffffff;fill-opacity:1"
         id="path312" />
    </g>
    <g
       id="g696"
       style="display:none">
      <rect
         style="fill:#000000;stroke-width:0.200663"
         id="rect690"
         width="7.9395161"
         height="2.217742"
         x="39.475807"
         y="106.21746"
         rx="1.0811232"
         ry="1" />
      <rect
         style="fill:#000000;stroke-width:0.235239"
         id="rect692"
         width="10.91129"
         height="2.217742"
         x="36.526211"
         y="101.65511"
         rx="0.9872278"
         ry="1" />
      <rect
         style="fill:#000000;stroke-width:0.27287"
         id="rect694"
         width="14.681452"
         height="2.217742"
         x="32.778229"
         y="96.893143"
         rx="0.98396462"
         ry="1" />
    </g>
    <g
       id="g730"
       transform="rotate(12.078632,61.195559,104.69379)"
       style="fill:#4f46e5;fill-opacity:1">
      <rect
         style="fill:#4f46e5;fill-opacity:1;stroke-width:0.206261"
         id="rect724"
         width="7.9395161"
         height="2.3431964"
         x="39.475807"
         y="106.21746"
         rx="1.0811232"
         ry="1.0565685" />
      <rect
         style="fill:#4f46e5;fill-opacity:1;stroke-width:0.251323"
         id="rect726"
         width="10.91129"
         height="2.531378"
         x="36.526211"
         y="101.65511"
         rx="0.9872278"
         ry="1.1414213" />
      <rect
         style="fill:#4f46e5;fill-opacity:1;stroke-width:0.295117"
         id="rect728"
         width="14.681452"
         height="2.5941052"
         x="32.778229"
         y="96.893143"
         rx="0.98396462"
         ry="1.1697056" />
    </g>
  </g>
</svg>
